<?xml version="1.0" encoding="UTF-8" standalone="no"?>
<svg
   width="16"
   height="16"
   version="1.1"
   id="svg1"
   xmlns="http://www.w3.org/2000/svg"
   xmlns:svg="http://www.w3.org/2000/svg">
  <defs
     id="defs1" />
  <path
     id="rect1"
     style="display:inline;fill:none;stroke:#ee802f;stroke-width:1.16703;stroke-linejoin:round;stroke-dasharray:none;paint-order:stroke fill markers"
     d="M 1.5835124,1.5835124 H 14.416487 V 14.416485 H 1.5835124 Z" />
  <path
     id="rect1-5"
     style="fill:#ee802f;stroke:none;stroke-width:0.73155;stroke-linejoin:round;paint-order:stroke fill markers"
     d="M 2,2 V 14 H 14 V 2 Z m 2.3623446,0.5435168 a 9.0941389,9.0941389 0 0 1 9.0941384,9.0941392 0.90941389,0.90941389 0 0 1 -1.818827,0 7.2753111,7.2753111 0 0 0 -7.2753114,-7.2753114 0.90941391,0.90941391 0 0 1 0,-1.8188278 z m 0,3.6376556 a 5.4564834,5.4564834 0 0 1 5.4564834,5.4564836 0.90941391,0.90941391 0 0 1 -1.8188278,0 3.6376555,3.6376555 0 0 0 -3.6376556,-3.6376558 0.90941391,0.90941391 0 0 1 0,-1.8188278 z m 0,3.6376556 a 1.8188278,1.8188278 0 0 1 0,3.637655 1.8188278,1.8188278 0 0 1 0,-3.637655 z" />
</svg>
