<?xml version="1.0" encoding="UTF-8"?>
<svg width="16" height="16" version="1.1" xmlns="http://www.w3.org/2000/svg"><path d="m1.5835 1.5835h12.833v12.833h-12.833z" fill="none" stroke="#ee802f" stroke-linejoin="round" stroke-width="1.167" style="paint-order:stroke fill markers"/><path d="m2 2v12h12v-12zm2.3623 0.54352a9.0941 9.0941 0 0 1 9.0941 9.0941 0.90941 0.90941 0 0 1-1.8188 0 7.2753 7.2753 0 0 0-7.2753-7.2753 0.90941 0.90941 0 0 1 0-1.8188zm0 3.6377a5.4565 5.4565 0 0 1 5.4565 5.4565 0.90941 0.90941 0 0 1-1.8188 0 3.6377 3.6377 0 0 0-3.6377-3.6377 0.90941 0.90941 0 0 1 0-1.8188zm0 3.6377a1.8188 1.8188 0 0 1 0 3.6377 1.8188 1.8188 0 0 1 0-3.6377z" fill="#ee802f" style="paint-order:stroke fill markers"/></svg>
